<?xml version="1.0" encoding="UTF-8"?>
<svg id="Layer_1" xmlns="http://www.w3.org/2000/svg" version="1.1" viewBox="0 0 168.04 118.35">
  <!-- Generator: Adobe Illustrator 29.2.1, SVG Export Plug-In . SVG Version: 2.1.0 Build 116)  -->
  <defs>
    <style>
      .st0 {
        fill: #ffcb05;
      }

      .st1 {
        fill: #4c4c45;
      }

      .st2 {
        fill: #493d17;
      }

      .st3 {
        fill: #f8c220;
      }

      .st4 {
        fill: #181c1e;
      }

      .st5 {
        fill: #313534;
      }

      .st6 {
        fill: #303433;
      }

      .st7 {
        fill: #323635;
      }

      .st8 {
        fill: #323433;
      }
    </style>
  </defs>
  <g>
    <path class="st4" d="M75.09,50.34c-1.22-.03-2.36-.14-3.43-.33-.03-.03-.08-.05-.14-.05.13.54.23,1.09.33,1.69.5,3.11.63,7.1.38,12-.25,4.9-.85,9.25-1.79,13.08-.22.94-.59,2.36-1.1,4.28s-1.25,4.08-2.21,6.52-2.22,4.9-3.79,7.39-3.53,4.81-5.88,6.94-5.19,3.86-8.51,5.18-7.21,1.97-11.67,1.97-8.76-1.13-12.32-3.41c-3.58-2.28-6.25-5.25-8.02-8.91-1.77-3.67-2.36-7.65-1.77-11.95.6-4.3,2.67-8.53,6.22-12.7s8.87-7.89,16-11.15c-4.58,3.17-7.67,7.16-9.26,12-1.6,4.83-1.65,9.38-.14,13.64,1.22,3.17,3.41,5.69,6.57,7.55,3.16,1.87,6.67,2.79,10.56,2.79,2.67,0,5.34-.66,7.99-2,2.67-1.33,5.12-3.03,7.37-5.08,2.24-2.05,4.1-4.22,5.6-6.52,1.49-2.29,2.45-4.44,2.89-6.45-1.76-6.37-3.73-13.16-5.93-20.4s-3.61-12.32-4.23-15.26c-1.92-3.04-3.09-6.45-3.53-10.21-.31-3.99.69-7.37,3.01-10.16,2.33-2.79,5.47-4.05,9.46-3.76-1.22-.13-2.44,0-3.67.38s-2.26,1-3.11,1.86-1.27,1.96-1.27,3.31.44,2.46,1.32,3.53c1.63,1.94,3.54,3.67,5.72,5.2,2.18,1.52,4.98,3.18,8.39,4.96v14.07s-.04,0-.04,0Z"/>
    <path class="st4" d="M100.08,61.78c1.22,1.29,2.38,2.49,3.48,3.63,3.48,3.64,5.69,7.84,6.61,12.61.93,4.77.46,9.49-1.39,14.16-1.07,2.67-2.62,4.97-4.66,6.92-2.04,1.94-4.43,3.32-7.15,4.14-1.22.38-2.48.57-3.76.57-2.38,0-4.45-.47-6.19-1.41s-3.19-2.16-4.33-3.67c-1.14-1.5-1.97-3.16-2.49-4.94-.52-1.79-.73-3.56-.64-5.32.21-3.48,1.17-6.61,2.87-9.38,1.69-2.78,3.65-5.2,5.88-7.27l-3.01-2.78c-1.29-1.13-2.43-2.38-3.43-3.76-2.2-3.35-3.2-6.43-2.99-9.23s1-5.22,2.37-7.29,3.48-4.25,6.3-6.54c-2,1.48-1.89,3.61.35,6.4s5.92,6.77,11.03,11.95c.03.03.06.08.1.14,2.95-4.46,4.59-9,4.94-13.64.19-2.41-.21-4.7-1.2-6.87s-3-3.71-6.05-4.66c-.91-.25-2.12-.27-3.65-.07-1.52.21-3.05.79-4.58,1.77l13.88-15.48c1.56,0,2.87.14,3.93.42s1.75.52,2.09.7c1.48.69,2.82,1.98,4.05,3.88s1.99,4.24,2.31,7.04c.28,3.86-.28,7.52-1.69,10.98-1.41,3.47-3.28,6.64-5.62,9.51s-4.79,5.37-7.37,7.51h0v-.02h.01ZM87.75,85.97c2.07,2.41,4.32,4.03,6.75,4.85,2.43.81,4.76,1.14,6.99.99,2.23-.16,4.78-.69,7.67-1.6l-20.8-18.35c-.22.25-.44.52-.65.8-1.57,2.29-2.33,4.62-2.26,6.99.06,2.36.83,4.48,2.31,6.33h0Z"/>
    <path class="st4" d="M138.23,49.02c3.61,1.79,6.58,3.56,8.91,5.32s4.39,3.95,6.17,6.57c1.77,2.62,2.71,5.66,2.79,9.11.06,2.95-.5,6.37-1.67,10.28-1.17,3.91-3.27,7.39-6.28,10.45s-7.24,4.81-12.7,5.25c-1.38,0-2.79-.02-4.23-.05-4.11-.41-7.12-1.81-9.03-4.21-1.92-2.4-3.04-5.31-3.39-8.73-.34-3.42-.22-6.83.35-10.23.58-3.4,1.29-6.29,2.14-8.68-1.32,4.08-1.52,7.35-.62,9.81s2.52,4.25,4.85,5.37,4.83,1.67,7.52,1.67c4.05,0,7.46-.3,10.23-.92,2.78-.62,5.01-1.31,6.7-2.09s3.31-1.79,4.85-3.01l-23.34-11.1,6.73-14.78v-.02h.02Z"/>
  </g>
  <path class="st0" d="M84.97,32.28c1.88-1.03,3.23-3.5,3.9-7.08l.2-.11c1.75.35,3.31-.15,4.86-.99,1.68-.92,2.44-2.55,1.86-5.72-.29-1.49-1.05-2.73-1.71-3.95-.95-1.75-3.56-4.94-7.24-7.55l-.27.14c-.3,1.55-.47,3.13-.66,4.88,3.23,2.42,5.6,4.7,6.15,5.53-.11.58-.71,1.25-1.25,1.55-.68.37-1.69.57-2.62.47-1.78.1-3.92-1.61-5.95-5.03l-.28-.02c-.58,1.01-.76,1.8-1.13,2.87l2.72,4.53c.73,1.34.97,3.56-1.31,4.8-1.41.77-2.88-.17-4.01-2.25-.66-1.21-1.11-2.52-1.51-4.05l-.28-.02c-.55.91-1.06,1.88-1.54,2.93.4,1.69,1.03,3.18,1.84,4.66,1.03,1.88,2.17,3.35,3.57,4.33,1.36.74,2.97.99,4.66.08Z"/>
  <g>
    <path class="st0" d="M-110.77,51.98c-1.25-.03-2.42-.14-3.51-.34-.03-.03-.08-.05-.14-.05.13.55.24,1.12.34,1.73.51,3.18.64,7.27.39,12.28-.26,5.01-.87,9.47-1.83,13.38-.23.96-.6,2.42-1.13,4.38s-1.28,4.18-2.26,6.67-2.27,5.01-3.88,7.56c-1.61,2.55-3.61,4.92-6.02,7.1-2.41,2.18-5.31,3.95-8.71,5.3-3.4,1.35-7.38,2.02-11.94,2.02s-8.96-1.16-12.61-3.49c-3.66-2.33-6.4-5.37-8.21-9.12-1.81-3.76-2.42-7.83-1.81-12.23s2.73-8.73,6.36-13c3.63-4.27,9.08-8.07,16.37-11.41-4.69,3.24-7.85,7.33-9.48,12.28-1.64,4.94-1.69,9.6-.14,13.96,1.25,3.24,3.49,5.82,6.72,7.73s6.83,2.86,10.81,2.86c2.73,0,5.46-.68,8.18-2.05,2.73-1.36,5.24-3.1,7.54-5.2,2.29-2.1,4.2-4.32,5.73-6.67,1.52-2.34,2.51-4.54,2.96-6.6-1.8-6.52-3.82-13.47-6.07-20.87s-3.69-12.61-4.33-15.62c-1.96-3.11-3.16-6.6-3.61-10.45-.32-4.08.71-7.54,3.08-10.4,2.38-2.86,5.6-4.14,9.68-3.85-1.25-.13-2.5,0-3.76.39s-2.31,1.02-3.18,1.9-1.3,2.01-1.3,3.39.45,2.52,1.35,3.61c1.67,1.99,3.62,3.76,5.85,5.32,2.23,1.56,5.1,3.25,8.59,5.08v14.4h-.03,0Z"/>
    <path class="st0" d="M-85.2,63.68c1.25,1.32,2.44,2.55,3.56,3.71,3.56,3.72,5.82,8.02,6.76,12.9.95,4.88.47,9.71-1.42,14.49-1.09,2.73-2.68,5.09-4.77,7.08-2.09,1.99-4.53,3.4-7.32,4.24-1.25.39-2.54.58-3.85.58-2.44,0-4.55-.48-6.33-1.44s-3.26-2.21-4.43-3.76c-1.17-1.54-2.02-3.23-2.55-5.06-.53-1.83-.75-3.64-.65-5.44.22-3.56,1.2-6.76,2.94-9.6,1.73-2.84,3.74-5.32,6.02-7.44l-3.08-2.84c-1.32-1.16-2.49-2.44-3.51-3.85-2.25-3.43-3.27-6.58-3.06-9.44s1.02-5.34,2.43-7.46,3.56-4.35,6.45-6.69c-2.05,1.51-1.93,3.69.36,6.55s6.06,6.93,11.29,12.23c.03.03.06.08.1.14,3.02-4.56,4.7-9.21,5.06-13.96.19-2.47-.22-4.81-1.23-7.03s-3.07-3.8-6.19-4.77c-.93-.26-2.17-.28-3.73-.07-1.56.21-3.12.81-4.69,1.81l14.2-15.84c1.6,0,2.94.14,4.02.43,1.08.29,1.79.53,2.14.72,1.51.71,2.89,2.03,4.14,3.97s2.04,4.34,2.36,7.2c.29,3.95-.29,7.7-1.73,11.24-1.44,3.55-3.36,6.79-5.75,9.73s-4.9,5.5-7.54,7.68h0ZM-97.82,88.43c2.12,2.47,4.42,4.12,6.91,4.96,2.49.83,4.87,1.17,7.15,1.01,2.28-.16,4.89-.71,7.85-1.64l-21.28-18.78c-.23.26-.45.53-.67.82-1.61,2.34-2.38,4.73-2.31,7.15.06,2.42.85,4.58,2.36,6.48,0,0-.01,0-.01,0Z"/>
    <path class="st0" d="M-46.16,50.63c3.69,1.83,6.73,3.64,9.12,5.44s4.49,4.04,6.31,6.72c1.81,2.68,2.77,5.79,2.86,9.32.06,3.02-.51,6.52-1.71,10.52-1.2,4-3.35,7.56-6.43,10.69s-7.41,4.92-13,5.37c-1.41,0-2.86-.02-4.33-.05-4.21-.42-7.29-1.85-9.24-4.31-1.96-2.46-3.11-5.43-3.47-8.93-.35-3.5-.23-6.99.36-10.47.59-3.48,1.32-6.44,2.19-8.88-1.35,4.17-1.56,7.52-.63,10.04s2.58,4.35,4.96,5.49,4.94,1.71,7.7,1.71c4.14,0,7.63-.31,10.47-.94,2.84-.63,5.13-1.34,6.86-2.14s3.39-1.83,4.96-3.08l-23.88-11.36,6.89-15.12v-.02s0,0,.01,0Z"/>
  </g>
  <path class="st4" d="M-95.95,28.67c1.18-1.04,1.74-3.04,1.63-5.71l.13-.11c1.32-.04,2.35-.65,3.32-1.5,1.05-.93,1.33-2.22.39-4.39-.45-1.02-1.2-1.79-1.87-2.54-.97-1.1-3.35-2.96-6.42-4.22l-.17.15c.04,1.16.17,2.32.33,3.6,2.71,1.21,4.78,2.45,5.3,2.96.01.44-.3,1.02-.64,1.31-.42.37-1.12.68-1.8.76-1.25.36-3.07-.51-5.08-2.63l-.2.03c-.25.82-.25,1.42-.34,2.25l2.69,2.79c.74.84,1.28,2.39-.15,3.65-.88.78-2.09.35-3.24-.96-.67-.76-1.21-1.63-1.74-2.65l-.2.03c-.24.74-.45,1.52-.62,2.35.56,1.15,1.26,2.11,2.08,3.04,1.04,1.18,2.1,2.04,3.26,2.51,1.09.31,2.29.23,3.35-.7v-.02h-.01Z"/>
  <g>
    <path class="st4" d="M237.72.76c-.31.26-.63.5-.97.73-.08.26-.32.35-.58.38-.26.16-.51.35-.74.56-.64.41-.51.02-.11-.32.05-.09.1-.19.16-.27s.12-.17.19-.25c2.87-2.82,5.79-4.95,9.12-7.18.24-.16,2.04-1.32,2.26-1.34.06,0,.12.02.17.05.28-.15.57-.3.86-.43.53.33.55-.5,0-.5l-.16-.23c-.06-.08-.11-.16-.16-.25s-.09-.17-.13-.26c-.53-1.55-1.03-3.1-1.51-4.66-.04-.19-.06-.39-.04-.59l-.16-.14c-.18-.94-.41-1.86-.69-2.77-.29,1.28-.62,2.57-.99,3.85-2.17,6.25-8,6.16-12.27,2.11.92,3.54,1.15,7.58-.82,10.81-1.6,2.62-4.3,3.85-7.28,3,.51.46,1.04.88,1.62,1.26v.14c.1.05.21.09.32.15s.21.11.3.18c1.47,1.04,2.98,2.12,4.33,3.19.69.53,1.78-.25,2.37-.7,1.56-1.21,3.13-2.51,4.66-3.8.98-.81,1.98-1.57,3.03-2.3.07-.05.14-.07.22-.1s.16-.05.25-.07c.61-.4,1.32-.82,1.97-1.18,2.02-1.13,4.42-2.14,6.67-2.69.07-.02.15-.09.19-.01-1.15.5-2.3,1.03-3.4,1.63-4.38,2.38-8.46,5.5-12.05,8.96-.57.55-1.91,2.14-2.51,2.41-.68.32-1.9-.59-2.43-.98-3.07-2.28-5.86-4.91-9.02-7.14-.5-.35-2.17-1.16-1.98-1.86.21-.8,1.86-.06,2.31.16.75.37,1.39.81,2.2,1.12,7.78,2.95,10.04-6.43,7.85-12.07-.71-1.82-1.85-3.01-2.65-4.66-.72-1.49.1-1.29.96-.46,1.01.98,1.66,2.26,2.6,3.3,5.02,5.58,11.26,4.32,12.22-3.52.14-1.19-.09-3.79.28-4.68.18-.42.54-.8.94-.36.83.91,1.04,3.43,1.34,4.7.37,1.55.83,3.09,1.33,4.61.23.7,1.63,4.35,1.49,4.76-.05.15-1.15.9-1.37,1.05-3.37,2.25-6.81,4.36-10.16,6.66,0,0-.03,0-.03,0Z"/>
    <path class="st3" d="M246.07-13.8c.54,1.95,1.24,3.84,1.85,5.76.33.35.49.83-.14.86-.13.2-.21.24-.25.13l-.31.17c-.48.22-1.11.62-1.58.91-3.68,2.23-7.31,5.02-10.32,8.09-.19.15-.29.3-.32.47l-.45.46c.53-.4,1.07-.79,1.61-1.17.52-.35,1.03-.75,1.55-1.1-.22.3-.61.49-.91.72-.06.04-.21.09-.13.17.46-.33,1.01-.61,1.52-.83.85-.37,2.23-.91,2.76.19-2.85,1.88-5.12,4.09-7.77,6.13-.53.41-1.57,1.17-2.24,1.16-.5,0-1.09-.65-1.5-.95-1.32-.97-2.66-1.89-3.97-2.88l.23-.09c3.13.54,5.43-1.46,7-3.96,1.23-1.96,2.15-4.46,1.63-6.74-.14-.67,0-.94.44-.8,2.21,1.21,4.41,1.7,6.75.35,2.62-1.52,4.02-3.98,4.38-6.95.02-.08.09-.09.18-.07v-.03h-.01Z"/>
    <path class="st2" d="M235.32,2.11l-.32.37c.37.08.7-.37,1.01-.58.06-.04.15-.03.15-.03-.88.76-1.85,1.44-2.68,2.28l.94-1.14c.27-.33.6-.59.9-.89h0Z"/>
    <path class="st1" d="M247.92-8.04c.35.29.82.09.62.76-.15.48-.59-.24-.87.22.12.06.25,0,.4.04.13.05.25.11.26.25.03.78-.98.38-.9.02.03-.16.27-.16.12-.3-.09.13-.24.12-.32.16.14-.19.76-.35.86-.47.06-.08-.11-.56-.15-.69h-.02Z"/>
    <path class="st6" d="M247.85-6.88c.59.04.12.71-.27.1.08-.06.17-.11.27-.1Z"/>
  </g>
  <g>
    <path class="st6" d="M225.27,69.98c-.31.2-.63.37-.96.53-.1.22-.33.27-.57.26-.25.11-.5.25-.74.4-.63.29-.46-.05-.06-.3.06-.08.12-.15.18-.23s.13-.14.2-.2c2.95-2.16,5.85-3.68,9.12-5.25.24-.11,2-.91,2.2-.91.06,0,.1.03.15.07.27-.1.55-.19.83-.27.43.37.56-.38.07-.45l-.11-.23c-.04-.08-.08-.16-.11-.25s-.06-.17-.08-.25c-.27-1.46-.52-2.92-.75-4.38,0-.18,0-.36.04-.53l-.13-.15c-.04-.87-.12-1.73-.26-2.57-.43,1.11-.89,2.22-1.39,3.32-2.76,5.32-7.98,4.48-11.29.29.36,3.3.04,6.96-2.15,9.59-1.78,2.14-4.36,2.89-6.92,1.74.39.48.82.93,1.28,1.34l-.03.12c.09.05.19.11.27.17s.17.13.25.2c1.18,1.13,2.4,2.29,3.47,3.43.55.57,1.63,0,2.22-.32,1.56-.88,3.13-1.84,4.68-2.8.98-.6,1.99-1.15,3.02-1.66.06-.03.14-.05.21-.06s.15-.02.23-.03c.6-.28,1.29-.57,1.92-.8,1.96-.75,4.25-1.34,6.34-1.55.06,0,.15-.06.17.02-1.1.3-2.2.63-3.27,1.02-4.24,1.56-8.32,3.83-11.98,6.46-.59.42-2,1.67-2.56,1.84-.65.2-1.63-.77-2.06-1.2-2.46-2.45-4.61-5.17-7.17-7.58-.4-.38-1.79-1.32-1.54-1.93.29-.69,1.68.19,2.05.44.62.43,1.14.91,1.83,1.29,6.59,3.66,9.85-4.46,8.62-9.8-.4-1.73-1.27-2.95-1.77-4.53-.45-1.43.26-1.15.92-.28.78,1.01,1.2,2.24,1.9,3.3,3.78,5.66,9.54,5.35,11.42-1.56.29-1.05.41-3.42.87-4.16.22-.36.59-.65.89-.2.62.93.49,3.21.59,4.39.13,1.44.34,2.88.59,4.31.11.66.89,4.11.71,4.47-.07.13-1.15.66-1.37.76-3.32,1.58-6.68,3.02-9.99,4.65l.02.02h0Z"/>
    <path class="st3" d="M234.68,58c.23,1.82.61,3.6.9,5.41.25.36.33.81-.24.75-.14.16-.22.19-.24.08l-.3.12c-.46.13-1.08.42-1.54.61-3.59,1.52-7.22,3.55-10.32,5.91-.19.11-.3.23-.35.38l-.46.35c.53-.29,1.06-.57,1.6-.84.52-.25,1.02-.54,1.53-.79-.23.24-.61.36-.91.53-.06.03-.2.06-.14.13.45-.23.98-.41,1.48-.55.81-.22,2.12-.52,2.45.53-2.8,1.31-5.13,3-7.78,4.48-.53.3-1.56.85-2.16.75-.45-.07-.89-.73-1.22-1.05-1.06-1.04-2.14-2.05-3.18-3.1l.22-.05c2.74.9,5.07-.6,6.8-2.64,1.36-1.6,2.51-3.72,2.34-5.84-.04-.62.13-.84.5-.66,1.82,1.37,3.74,2.11,6.01,1.2,2.55-1.02,4.13-3.05,4.84-5.67.03-.07.09-.06.17-.04h0Z"/>
    <path class="st6" d="M215.59,63.87c.36.6.72,1.31.83,2.01.09.57-.12,1.34-.79,1.4-1.02.1-.73-1.58-.81-2.2-.19-1.5-.88-2.75-1.65-4.03.1-.07.23,0,.32.06,1.04.53,1.79,1.43,2.99,1.91.39.15,2.01.53,2.17.71.18.22.24.57.04.8-.41.47-1.23.28-1.73.09s-.91-.51-1.38-.74h0Z"/>
    <path class="st6" d="M228.56,56.6c-.22.75-.35,2.51-1.17,2.85-.28.12-.53.06-.64-.25-.17-.48.5-1.72.67-2.23.38-1.09.48-2.24.62-3.38.13.32.26.73.41,1.03.41.84,1.08,1.83,1.78,2.45.31.28,1.27.76.5,1.2-.98.57-1.93-.88-2.17-1.68h0Z"/>
    <path class="st6" d="M205.16,64.46c.57-.45,1.27.03,1.67.46.91.98-.65,1.24-1.25.9-.41-.23-.9-.98-.42-1.36Z"/>
    <path class="st6" d="M234.56,49.5c-.45-.16-.63-1.25-.28-1.61.28-.28.9-.42,1.07.02.16.4-.17,1.81-.79,1.59h0Z"/>
    <path class="st5" d="M227.25,50.08c.27-.16.66-.07.84.19.44.64-.22,2.24-.8,1.48-.26-.35-.52-1.39-.05-1.67h.01Z"/>
    <path class="st8" d="M216.8,50c.18-.12.52-.09.68.06.22.19.69,1.22.56,1.46-.15.28-.43.17-.65.06-.5-.26-1.29-1.13-.6-1.58h.01Z"/>
    <path class="st7" d="M210.97,58.69c.48-.44,1.25.32,1.33.83.2,1.18-1.77.5-1.49-.52.02-.07.11-.26.16-.31Z"/>
    <path class="st2" d="M222.94,70.87l-.33.29c.32.12.67-.24.99-.39.06-.03.14,0,.14,0-.89.57-1.85,1.05-2.7,1.69l.99-.9c.28-.26.62-.45.92-.68h-.01Z"/>
    <path class="st1" d="M235.58,63.41c.28.31.73.19.46.77-.19.42-.5-.29-.81.08.1.07.22.02.35.09.11.06.21.13.2.26-.07.71-.93.21-.81-.1.05-.14.26-.11.14-.25-.09.1-.23.08-.31.1.15-.15.73-.21.83-.31.07-.07-.03-.51-.05-.64h0Z"/>
    <path class="st6" d="M235.37,64.44c.52.11.02.66-.26.05.08-.05.17-.07.26-.05Z"/>
  </g>
</svg>